<svg xmlns="http://www.w3.org/2000/svg" xmlns:xlink="http://www.w3.org/1999/xlink" width="626.673" height="443.752" viewBox="0 0 626.673 443.752">
  <defs>
    <linearGradient id="linear-gradient" x1="0.5" y1="1" x2="0.5" gradientUnits="objectBoundingBox">
      <stop offset="0" stop-color="gray" stop-opacity="0.251"/>
      <stop offset="0.54" stop-color="gray" stop-opacity="0.122"/>
      <stop offset="1" stop-color="gray" stop-opacity="0.102"/>
    </linearGradient>
    <linearGradient id="linear-gradient-2" x1="0.5" y1="1" x2="0.5" y2="0" xlink:href="#linear-gradient"/>
  </defs>
  <g id="Hero" transform="translate(0.005 0.006)">
    <ellipse id="Ellipse_1" data-name="Ellipse 1" cx="55.24" cy="8.872" rx="55.24" ry="8.872" transform="translate(153.241 425.751)" fill="#00695c" opacity="0.1"/>
    <ellipse id="Ellipse_2" data-name="Ellipse 2" cx="68.931" cy="8.872" rx="68.931" ry="8.872" transform="translate(439.829 426.001)" fill="#00695c" opacity="0.1"/>
    <path id="Path_1" data-name="Path 1" d="M60.179,396.83h57.536v78.422H64.391c-.142.805-.278,1.616-.425,2.426h53.749v63.245c-.1-.028-.181-.062-.272-.1-1.519-.6-3.027-1.236-4.535-1.916l-.964-.437q-2.268-1.072-4.535-2.268c-.527-.278-1.054-.567-1.576-.862A94.346,94.346,0,0,1,83.224,517.68c-.193-.187-.374-.385-.567-.567-.918-1-1.82-2.007-2.693-3.039L79,512.94c-1.032-1.264-2.03-2.562-3-3.878-.142-.193-.278-.385-.425-.567a84.4,84.4,0,0,1-9.751-17.631c-.079-.187-.147-.391-.221-.567q-1.168-3-2.069-6.066c-.261-.856-.51-1.7-.726-2.591-.079-.261-.147-.516-.21-.771C59.38,468.3,59,455.245,59,442.28v-4.535c0-5.244.062-10.522.153-15.794,0-1.366.057-2.727.085-4.1q.119-5.221.34-10.443c.034-.969.079-1.933.13-2.9a16.408,16.408,0,0,1,.085-1.667C59.93,400.827,60.043,398.826,60.179,396.83Z" transform="translate(-52.125 -205.102)" fill="#00695c" opacity="0.1"/>
    <path id="Path_2" data-name="Path 2" d="M138.46,212.338H106.9a239.247,239.247,0,0,1,16.786-23.108c4.688-5.76,9.638-11.372,14.774-16.781Z" transform="translate(-72.87 -107.926)" fill="#00695c" opacity="0.1"/>
    <path id="Path_3" data-name="Path 3" d="M118.755,247.09v82.464H61.4c0-.238.04-.482.057-.72.051-.652.1-1.3.159-1.95.062-.76.13-1.525.2-2.268s.153-1.65.238-2.472.164-1.655.261-2.477.181-1.644.283-2.46.193-1.644.3-2.46c.085-.68.176-1.355.266-2.035.13-.958.266-1.922.414-2.874a2.65,2.65,0,0,1,.062-.425,196.1,196.1,0,0,1,4.224-20.7,153.113,153.113,0,0,1,7.115-20.976,157.465,157.465,0,0,1,10.7-20.613Z" transform="translate(-53.165 -140.252)" fill="#00695c" opacity="0.1"/>
    <path id="Path_4" data-name="Path 4" d="M186.8,250.353V328.78H309.69V250.353Zm0,80.848v67.35c.7.147,1.4.289,2.092.408.941.181,1.876.346,2.835.488.181.028.368.057.567.074.374.062.76.113,1.134.164.947.13,1.888.238,2.835.323.448.045.9.085,1.355.119l1.094.085h0c.6.045,1.185.079,1.769.1.363,0,.726.034,1.1.045h4.042c.488,0,.975,0,1.457-.045h.034a7.643,7.643,0,0,0,1.015-.045,2.387,2.387,0,0,0,.283,0,5.858,5.858,0,0,0,.839-.04h.2l1.9-.147c.624-.057,1.253-.13,1.888-.2l1.293-.153a113.071,113.071,0,0,0,15.562-3.311c11.463-3.2,22.677-7.67,34.134-10.947,14.814-4.224,31.18-6.3,45.495-1.134V331.2ZM309.69,163.042V58.633a157.983,157.983,0,0,0-39.928,4.683c-31.118,7.818-59.039,24.774-82.963,46.43v53.29h6.168v2.421H186.8v82.475H309.69V165.463h-91.4v-2.421Zm157.846-35.268a50.9,50.9,0,0,1-22.274-6.474c-13.237-7.2-23.81-18.317-35.625-27.7-24.547-19.542-54.991-31.333-86.222-34.259v103.7H498.848l.437-.459Zm15.981-2.835,16.945,18.595v-23.47c-5.675.7-10.647,2.375-16.922,4.853Zm16.945,290.335V331.2H464.356c-.1-.357-.193-.72-.306-1.083.108.363.2.726.3,1.083H323.438V392c1.338.992,2.659,2.035,3.968,3.1h0c1.412,1.134,2.806,2.33,4.207,3.5l1.412,1.168c.675.567,1.355,1.134,2.041,1.667q2.041,1.655,4.121,3.265c.686.567,1.389,1.077,2.086,1.61a284.148,284.148,0,0,0,34.939,22.852q4.1,2.268,8.271,4.428c1.854.947,3.719,1.888,5.59,2.8q4.218,2.058,8.5,3.968h0a312.28,312.28,0,0,0,82.77,24.111q9.518,1.406,19.111,2.211V415.269h.567ZM323.438,165.463v82.469H500.486V165.463Zm0,84.89V328.78H500.486V250.353Zm190.79-130.391v26.18l21.628-23.731q-10.749-1.735-21.628-2.477Zm0,130.419v78.4h172.2V250.353ZM685.8,421.5l.607-90.3H514.228V467.584a308.8,308.8,0,0,0,33.278-.4h.193q7.937-.5,15.8-1.451h.119A290.964,290.964,0,0,0,644.8,444.074m74.833-180.807c-.646-1.525-1.321-3.039-2.007-4.535-1.281-2.835-2.636-5.59-4.031-8.345H700.16V328.78h33.97c-.017-22.2-5.635-44.877-14.479-65.541ZM700.16,331.229V408.9a111.263,111.263,0,0,0,23.476-31.662c7-14.445,10.2-30.086,10.465-46.017Zm0-103.7v20.409h12.177a221.128,221.128,0,0,0-12.16-20.437ZM583.375,135.348c-.9-.34-1.791-.686-2.693-1.02a245.825,245.825,0,0,0-29.088-8.742l-33.1,36.322h0l-.635.675.425.465H636.081a251.943,251.943,0,0,0-52.689-27.728Zm56.159,30.143H516.643l-2.415,2.211v80.23H686.452V209.07a245.363,245.363,0,0,0-46.9-43.607Z" transform="translate(-107.473 -58.63)" fill="#00695c" opacity="0.1"/>
    <path id="Path_5" data-name="Path 5" d="M118.755,320.46v40.869H61.4c0-.238.04-.482.057-.72.051-.652.1-1.3.159-1.95.062-.76.13-1.525.2-2.268s.153-1.65.238-2.472.164-1.655.261-2.477.181-1.644.283-2.46.193-1.644.3-2.46c.085-.68.176-1.355.266-2.035.13-.958.266-1.922.414-2.874a2.65,2.65,0,0,1,.062-.425,196.1,196.1,0,0,1,4.224-20.7Z" transform="translate(-53.165 -172.027)" fill="#00695c" opacity="0.1"/>
    <path id="Path_6" data-name="Path 6" d="M60.179,396.83h57.536v78.422H64.391c-.142.805-.278,1.616-.425,2.426h53.749v63.245c-.1-.028-.181-.062-.272-.1-1.519-.6-3.027-1.236-4.535-1.916l-.964-.437q-2.268-1.072-4.535-2.268c-.527-.278-1.054-.567-1.576-.862A94.346,94.346,0,0,1,83.224,517.68c-.193-.187-.374-.385-.567-.567-.918-1-1.82-2.007-2.693-3.039L79,512.94c-1.032-1.264-2.03-2.562-3-3.878-.142-.193-.278-.385-.425-.567a84.4,84.4,0,0,1-9.751-17.631c-.079-.187-.147-.391-.221-.567q-1.168-3-2.069-6.066c-.261-.856-.51-1.7-.726-2.591-.079-.261-.147-.516-.21-.771C59.38,468.3,59,455.245,59,442.28v-4.535c0-5.244.062-10.522.153-15.794,0-1.366.057-2.727.085-4.1q.119-5.221.34-10.443c.034-.969.079-1.933.13-2.9a16.408,16.408,0,0,1,.085-1.667C59.93,400.827,60.043,398.826,60.179,396.83Z" transform="translate(-52.125 -205.102)" fill="#00695c" opacity="0.1"/>
    <path id="Path_7" data-name="Path 7" d="M182.821,191v70.66H139.56V191h6.168V167.08h25.318V191Z" transform="translate(-60.233 -72.362)" fill="#00695c" opacity="0.1"/>
    <rect id="Rectangle_1" data-name="Rectangle 1" width="43.256" height="78.422" transform="translate(79.332 191.723)" fill="#00695c" opacity="0.1"/>
    <path id="Path_8" data-name="Path 8" d="M186.8,539.44h43.261v65.2A112.879,112.879,0,0,1,214.5,607.94l-1.293.159c-.635.074-1.264.136-1.888.2s-1.27.108-1.9.147h-.2c-.272,0-.567.034-.833.04H208.1c-.34,0-.68.034-1.02.045h0c-.482.028-.964.034-1.457.04h-4.014l-1.094-.04c-.567,0-1.179-.062-1.769-.1h0l-1.088-.079-1.355-.125c-.952-.085-1.9-.193-2.835-.323l-1.134-.159-.567-.079c-.947-.147-1.882-.306-2.835-.488-.7-.119-1.389-.266-2.092-.408Z" transform="translate(-107.473 -266.864)" fill="#00695c" opacity="0.1"/>
    <rect id="Rectangle_2" data-name="Rectangle 2" width="35.67" height="79" transform="translate(357.342 110.296)" fill="#00695c" opacity="0.1"/>
    <path id="Path_9" data-name="Path 9" d="M557.634,338.19v78.427H380.58V382.789h94.307v19.955h47.071V338.19Z" transform="translate(-164.615 -146.467)" fill="#00695c" opacity="0.1"/>
    <path id="Path_10" data-name="Path 10" d="M605.435,622.7h-.567v51.448q-9.581-.811-19.105-2.205a312.293,312.293,0,0,1-82.8-24.162q-11.412-5.136-22.359-11.214a285.314,285.314,0,0,1-34.945-22.852q-4.173-3.2-8.237-6.542c-1.876-1.548-3.742-3.135-5.629-4.677-1.31-1.06-2.63-2.1-3.968-3.1V538.613H568.727c-.1-.363-.193-.726-.295-1.083.108.357.21.72.306,1.083h36.13v84.051C605.061,622.669,605.248,622.686,605.435,622.7Z" transform="translate(-211.855 -266.037)" fill="#00695c" opacity="0.1"/>
    <path id="Path_11" data-name="Path 11" d="M886.464,220.857H863.22v-7.223h10.42V192.12q1.355.493,2.7,1.015v20.5h10.125Z" transform="translate(-400.42 -116.445)" fill="#00695c" opacity="0.1"/>
    <path id="Path_12" data-name="Path 12" d="M899.649,329.554H785.54l.04.028-.051-.028H764.36v-79h6v58.392h27.41V274.364h22.643V247.09h23.244v27.3H866.3v34.582h33.352Z" transform="translate(-357.605 -140.252)" fill="#00695c" opacity="0.1"/>
    <path id="Path_13" data-name="Path 13" d="M764.36,396.82v78.427H899.649V396.82ZM936.374,567.564l.187-62.077H899.649V477.708H764.36V614.051a308.786,308.786,0,0,0,33.278-.4h.193q7.937-.5,15.8-1.451h.119a290.963,290.963,0,0,0,81.182-21.662" transform="translate(-357.605 -205.097)" fill="#00695c" opacity="0.1"/>
    <path id="Path_14" data-name="Path 14" d="M1094.751,539.44h31.56c-.278,15.925-3.475,31.566-10.471,46.011a111.3,111.3,0,0,1-23.47,31.662V567.224h2.381Z" transform="translate(-499.661 -266.864)" fill="#00695c" opacity="0.1"/>
    <path id="Path_15" data-name="Path 15" d="M1128.147,485.091H1096.57V419.55h17.087C1122.5,440.214,1128.119,462.891,1128.147,485.091Z" transform="translate(-501.48 -214.941)" fill="#00695c" opacity="0.1"/>
    <rect id="Rectangle_3" data-name="Rectangle 3" width="19.111" height="24.769" transform="translate(373.908 132.259)" fill="#00695c" opacity="0.1"/>
    <rect id="Rectangle_4" data-name="Rectangle 4" width="19.111" height="5.703" transform="translate(373.908 183.599)" fill="#00695c" opacity="0.1"/>
    <rect id="Rectangle_5" data-name="Rectangle 5" width="19.111" height="16.639" transform="translate(373.908 191.723)" fill="#00695c" opacity="0.1"/>
    <rect id="Rectangle_6" data-name="Rectangle 6" width="19.111" height="24.769" transform="translate(373.908 234.939)" fill="#00695c" opacity="0.1"/>
    <rect id="Rectangle_7" data-name="Rectangle 7" width="19.111" height="24.769" transform="translate(373.908 286.279)" fill="#00695c" opacity="0.1"/>
    <path id="Path_16" data-name="Path 16" d="M725.525,673.179a3.143,3.143,0,0,1,.567.034h-.567v5.754H706.42v-24.8h19.105Z" transform="translate(-332.512 -316.551)" fill="#00695c" opacity="0.1"/>
    <path id="Path_17" data-name="Path 17" d="M725.525,744.71v19.133q-9.581-.811-19.105-2.205V744.71Z" transform="translate(-332.512 -355.763)" fill="#00695c" opacity="0.1"/>
    <rect id="Rectangle_8" data-name="Rectangle 8" width="81.902" height="1.82" transform="translate(215.965 268.33)" fill="#00695c" opacity="0.1"/>
    <rect id="Rectangle_9" data-name="Rectangle 9" width="81.902" height="6.973" transform="translate(215.965 272.571)" fill="#00695c" opacity="0.1"/>
    <rect id="Rectangle_10" data-name="Rectangle 10" width="81.902" height="11.214" transform="translate(215.965 302.402)" fill="#00695c" opacity="0.1"/>
    <path id="Path_18" data-name="Path 18" d="M512.744,652.15v11.214H448.682q-4.172-3.186-8.243-6.542c-1.877-1.548-3.736-3.135-5.629-4.671Z" transform="translate(-214.882 -315.677)" fill="#00695c" opacity="0.1"/>
    <path id="Path_19" data-name="Path 19" d="M550.037,712.227v11.2h-6.763q-11.4-5.142-22.353-11.219Z" transform="translate(-252.175 -341.688)" fill="#00695c" opacity="0.1"/>
    <rect id="Rectangle_11" data-name="Rectangle 11" width="16.123" height="16.123" transform="translate(440.038 199.325)" fill="#00695c" opacity="0.1"/>
    <rect id="Rectangle_12" data-name="Rectangle 12" width="16.123" height="16.123" transform="translate(90.943 124.203)" fill="#00695c" opacity="0.1"/>
    <rect id="Rectangle_13" data-name="Rectangle 13" width="16.123" height="16.123" transform="translate(90.943 161.653)" fill="#00695c" opacity="0.1"/>
    <rect id="Rectangle_14" data-name="Rectangle 14" width="16.123" height="16.123" transform="translate(90.943 199.104)" fill="#00695c" opacity="0.1"/>
    <rect id="Rectangle_15" data-name="Rectangle 15" width="16.123" height="16.123" transform="translate(90.943 236.549)" fill="#00695c" opacity="0.1"/>
    <rect id="Rectangle_16" data-name="Rectangle 16" width="16.123" height="16.123" transform="translate(90.943 273.999)" fill="#00695c" opacity="0.1"/>
    <rect id="Rectangle_17" data-name="Rectangle 17" width="16.123" height="16.123" transform="translate(90.943 311.45)" fill="#00695c" opacity="0.1"/>
    <rect id="Rectangle_18" data-name="Rectangle 18" width="16.123" height="16.123" transform="translate(501.589 199.325)" fill="#00695c" opacity="0.1"/>
    <rect id="Rectangle_19" data-name="Rectangle 19" width="16.123" height="16.123" transform="translate(440.038 239.094)" fill="#00695c" opacity="0.1"/>
    <rect id="Rectangle_20" data-name="Rectangle 20" width="16.123" height="16.123" transform="translate(501.589 239.094)" fill="#00695c" opacity="0.1"/>
    <rect id="Rectangle_21" data-name="Rectangle 21" width="16.123" height="16.123" transform="translate(440.038 278.858)" fill="#00695c" opacity="0.1"/>
    <rect id="Rectangle_22" data-name="Rectangle 22" width="16.123" height="16.123" transform="translate(501.589 278.858)" fill="#00695c" opacity="0.1"/>
    <rect id="Rectangle_23" data-name="Rectangle 23" width="16.123" height="16.123" transform="translate(440.038 318.627)" fill="#00695c" opacity="0.1"/>
    <rect id="Rectangle_24" data-name="Rectangle 24" width="16.123" height="16.123" transform="translate(501.589 318.627)" fill="#00695c" opacity="0.1"/>
    <rect id="Rectangle_25" data-name="Rectangle 25" width="16.123" height="16.123" transform="translate(440.038 358.396)" fill="#00695c" opacity="0.1"/>
    <rect id="Rectangle_26" data-name="Rectangle 26" width="16.123" height="16.123" transform="translate(501.589 358.396)" fill="#00695c" opacity="0.1"/>
    <path id="Path_20" data-name="Path 20" d="M775.83,712.727v-10.4h16.117v8.918Z" transform="translate(-335.791 -304.17)" fill="#00695c" opacity="0.1"/>
    <path id="Path_21" data-name="Path 21" d="M65.24,357v9.224h55.178V357Zm5.5,8.645h-4.5v-8.079h4.535Zm5.493,0H71.7v-8.079h4.535Zm5.482,0H77.179v-8.079h4.535Zm5.493,0h-4.53v-8.079h4.535Zm5.488,0H88.16v-8.079H92.7Zm5.493,0H93.654v-8.079h4.535Zm5.493,0H99.147v-8.079h4.535Zm5.488,0h-4.535v-8.079h4.535Zm5.488,0h-4.535v-8.079h4.535Zm5.488,0H115.61v-8.079h4.535Z" transform="translate(-54.828 -187.852)" fill="#00695c" opacity="0.1"/>
    <path id="Path_22" data-name="Path 22" d="M65.24,404.34v9.224h55.178V404.34Zm5.5,8.64h-4.5v-8.056h4.535Zm5.493,0H71.7v-8.056h4.535Zm5.482,0H77.179v-8.056h4.535Zm5.493,0h-4.53v-8.056h4.535Zm5.488,0H88.16v-8.056H92.7Zm5.493,0H93.654v-8.056h4.535Zm5.493,0H99.147v-8.056h4.535Zm5.488,0h-4.535v-8.056h4.535Zm5.488,0h-4.535v-8.056h4.535Zm5.488,0H115.61v-8.056h4.535Z" transform="translate(-54.828 -208.354)" fill="#00695c" opacity="0.1"/>
    <path id="Path_23" data-name="Path 23" d="M65.24,451.7v9.241h55.178V451.7Zm5.5,8.64h-4.5v-8.062h4.535Zm5.493,0H71.7v-8.062h4.535Zm5.482,0H77.179v-8.062h4.535Zm5.493,0h-4.53v-8.062h4.535Zm5.488,0H88.16v-8.062H92.7Zm5.493,0H93.654v-8.062h4.535Zm5.493,0H99.147v-8.062h4.535Zm5.488,0h-4.535v-8.062h4.535Zm5.488,0h-4.535v-8.062h4.535Zm5.488,0H115.61v-8.062h4.535Z" transform="translate(-54.828 -228.865)" fill="#00695c" opacity="0.1"/>
    <path id="Path_24" data-name="Path 24" d="M65.24,499.06v9.212h55.178V499.06Zm5.5,8.64h-4.5v-8.067h4.535Zm5.493,0H71.7v-8.067h4.535Zm5.482,0H77.179v-8.067h4.535Zm5.493,0h-4.53v-8.067h4.535Zm5.488,0H88.16v-8.067H92.7Zm5.493,0H93.654v-8.067h4.535Zm5.493,0H99.147v-8.067h4.535Zm5.488,0h-4.535v-8.067h4.535Zm5.488,0h-4.535v-8.067h4.535Zm5.488,0H115.61v-8.067h4.535Z" transform="translate(-54.828 -249.376)" fill="#00695c" opacity="0.1"/>
    <path id="Path_25" data-name="Path 25" d="M65.66,546.41c.221.867.471,1.735.731,2.591v-2.013h4.535v8.062H68.5c.074.187.147.391.221.567H120.6V546.41Zm10.771,8.64H71.9v-8.062h4.535Zm5.482,0H77.378v-8.062h4.535Zm5.493,0H82.86v-8.062H87.4Zm5.488,0H88.359v-8.062h4.535Zm5.493,0H93.853v-8.062h4.535Zm5.493,0H99.346v-8.062h4.535Zm5.488,0h-4.535v-8.062h4.535Zm5.488,0h-4.535v-8.062h4.535Zm5.488,0h-4.535v-8.062h4.535Z" transform="translate(-55.01 -269.882)" fill="#00695c" opacity="0.1"/>
    <path id="Path_26" data-name="Path 26" d="M88.26,593.77c.142.181.278.385.425.567h3v3.872c.323.385.641.771.969,1.134v-5.029h4.535v8.09H95.352c.181.187.357.385.567.567H130.4v-9.2Zm14.405,8.634H98.13v-8.056h4.535Zm5.493,0h-4.535v-8.056h4.535Zm5.493,0h-4.535v-8.056h4.535Zm5.488,0H114.6v-8.056h4.535Zm5.488,0h-4.535v-8.056h4.535Zm5.488,0H125.58v-8.056h4.535Z" transform="translate(-64.797 -290.393)" fill="#00695c" opacity="0.1"/>
    <path id="Path_27" data-name="Path 27" d="M141.65,641.12c.516.295,1.043.567,1.576.862V641.7h4.535v2.551l.964.448v-3h4.535v4.9a1.415,1.415,0,0,0,.272.1V641.12Z" transform="translate(-87.92 -310.9)" fill="#00695c" opacity="0.1"/>
    <path id="Path_28" data-name="Path 28" d="M540.137,327.687Zm-34.922,167.32ZM468.78,409.873c.108.363.2.726.3,1.083h0C468.989,410.6,468.893,410.236,468.78,409.873Zm71.358-82.2ZM197.72,242.78V245.2h25.324V242.78Zm307.5,252.227ZM468.78,409.873c.108.363.2.726.3,1.083h0C468.989,410.6,468.893,410.236,468.78,409.873Zm71.358-82.2ZM505.215,494.99ZM468.78,409.873c.108.363.2.726.3,1.083h0C468.989,410.6,468.893,410.236,468.78,409.873Z" transform="translate(-112.203 -138.385)" fill="#00695c" opacity="0.1"/>
    <path id="Path_29" data-name="Path 29" d="M416.5,342.96s-2.234-.312-2.234-3.566-1.6-9.331-1.6-9.331h0c0-.028-1.383-10.584-3.294-12.262s-4.365-11.531-4.365-11.531-.419-5.346-1.276-6.5-2.013-3.968-3.719-7.988-8.821-6.8-8.821-6.8-12.863-7.461-16.509-9.893h0a5.588,5.588,0,0,1-.924-.7c-.635-.833-3.4-.85-3.4-.85a55.73,55.73,0,0,1-.658-5.822,4.431,4.431,0,0,0-.028-.612,19.615,19.615,0,0,0,8.623-10.669c.068-.215.125-.442.187-.658a1.843,1.843,0,0,0,1.105-1,20.8,20.8,0,0,1,.743-2.268,8.541,8.541,0,0,1,2.1-1.842c1.8-1.531,2.268-4.11,2.183-6.457-.057-1.9-.363-3.815-.244-5.7l.034-.476c.034-.283.074-.567.125-.839.278-1.406.884-2.733,1.225-4.127a5.309,5.309,0,0,0-.42-4.167c-1.162-1.763-3.583-2.115-5.709-2.3-2.409-.2-4.564.062-6.106-1.939a21.763,21.763,0,0,0-2.426-2.931c-.318-.295-3.4-2.177-3.4-2.3a13.782,13.782,0,0,0-9.609-.737c-1.6.465-3.107,1.225-4.728,1.6-3.5.828-7.523-.068-10.494,1.933a12.334,12.334,0,0,0-3.577,4.694q-1.134,2.171-2.3,4.337a28.094,28.094,0,0,0-3.056,7.421,11.781,11.781,0,0,0-.2,1.735h0v.924a3.048,3.048,0,0,0,.034.567c.034.176.028.232.045.351s.045.386.079.567.1.5.17.748c.028.108.068.21.1.312.057.193.125.38.2.567.04.1.079.2.125.295a5.3,5.3,0,0,0,.289.567c.045.079.079.153.125.227a7.53,7.53,0,0,0,.522.76c1.213,1.514,3,2.477,4.32,3.895v.635a19.406,19.406,0,0,0,8.833,15.845c0,.215.028.436.04.652a32.443,32.443,0,0,1-.062,5.051,2.381,2.381,0,0,0-1.882-.839,2.713,2.713,0,0,0-.726.062l-.051-.04h0v.051c-1.247.306-2.784,1.6-4.252,5.295,0,0-4.467,5.034-7.869,4.824s-12.013,5.238-12.013,5.238-8.4,5.454-10.2,11.01a77.587,77.587,0,0,1-3.617,9.229l-10.386,21.4h0L295.62,345.6s1.06,7.551.85,8.7,4.36,11.531,4.36,11.531,15.1,26.526,21.265,27.887l.442-.312a3.617,3.617,0,0,0,.833.312l1.27-.9a13.84,13.84,0,0,1-.1,2.993c-.85,2.619.317,19.712,1.8,23.062s.958,47.281.958,47.281l-.21,3.878a1.644,1.644,0,0,0,.051.34l-.051.918.153.079a10.92,10.92,0,0,1-.153,3.691,41.037,41.037,0,0,0-.748,6.508s-4.246,27.144-2.234,32.6,3.725,11.429,3.725,11.429,2.126,6.8.1,7.965-7.778,3.112-6.593,5.947c1.077,2.619,5.165,9.638,5.771,10.664l-.051.539-.833,9.031a11.339,11.339,0,0,0,.958,3.447,5.939,5.939,0,0,0,6.06,3.787c.567-.04,1.225-.108,1.859-.193a80.353,80.353,0,0,0,13.776-3.583,5.618,5.618,0,0,1-1.077-.89h0a3.112,3.112,0,0,1-.947-2.268c.091-1.644-2.988-9.479-3.753-11.406-.119-.278-.181-.437-.181-.437s7.018-7.336,5.851-13.838c0,0-7.767-4.535-5.21-7.024S350.7,517.7,350.7,517.7s.21-26.73,0-30.721a33.05,33.05,0,0,1,.391-8.294c.085-.414.187-.816.295-1.213a74,74,0,0,0,10.681.811c1.3,0,2.63,0,3.968-.079q0,.567.051,1.225c.295,6.622.845,18.232,1.293,22.546.635,6.185,4.144,22.852,4.144,22.852s-6.7,4.3,1.168,14.887c0,0,0,3.838-.522,4.394h0a48.073,48.073,0,0,0-1.344,5.533c-.329,2-.465,4.014.068,5.063,1.276,2.506,8.929,2.3,8.929,2.3h0l.187-.034a10.97,10.97,0,0,1,8.1,2.443c2.908,2.336,13.946,1.31,19.921.567,2.341-.295,3.906-.567,3.906-.567a2.268,2.268,0,0,0,.079-.816h0c-.062-1.468-1.213-4.688-9.014-7.563,0,0-7.336-4.932-7.234-9.229h-1a7.986,7.986,0,0,1,1.015,0s-2.874-10.488-1.7-11.338S391.735,518,391.735,518s-2.013-19.5-2.12-20.868a11.907,11.907,0,0,1,.527-3.458l-.527-10.692s-.1-3.555,0-4.711a23.529,23.529,0,0,0-.244-3c-.051-.4-.1-.811-.159-1.219,2.75-.7,4.535-1.344,4.535-1.344l-.317-37.218c2.336-4.535,2.767-14.485,2.755-21.543,0-4.535-.2-7.891-.2-7.891l3.192-5.21s.737-6.236-.431-7.6a1.309,1.309,0,0,1,.142-1.786,5.928,5.928,0,0,1,.7-.476s-.034-.051-.074-.125a5.632,5.632,0,0,1,.709-.5s-1.134-1.757-.119-2.5c.952.646,1.8,1.134,2.449,1.531-.045.414-.091.652-.091.652l.272-.567,1,.567s5-9.961,4.892-11.429,3.4-7.653,3.4-7.653.425-3.248,2.341-4.609,1.485-11.219,1.485-11.219.533-5.136,1.808-7.234S416.5,342.96,416.5,342.96Zm-95.673-4.371.1,2.375-.975-1.57Z" transform="translate(-154.601 -127.722)" fill="url(#linear-gradient)"/>
    <path id="Path_30" data-name="Path 30" d="M476.718,502.337l-1.225,5.216s-9.808-5.006-11.576-11.367,2.959-8.776,2.959-8.776l9.139,3.872Z" transform="translate(-227.317 -244.33)" fill="#fff"/>
    <path id="Path_31" data-name="Path 31" d="M476.718,502.337l-1.225,5.216s-9.808-5.006-11.576-11.367,2.959-8.776,2.959-8.776l9.139,3.872Z" transform="translate(-227.317 -244.33)" opacity="0.1"/>
    <path id="Path_32" data-name="Path 32" d="M372.759,811.073s-9.071,3.333-15.307,3.753a5.824,5.824,0,0,1-5.947-3.764,11.4,11.4,0,0,1-.935-3.43l.811-8.986.431-4.785,13.249-3.441,1.876,5.737.176.437c.754,1.916,3.776,9.711,3.685,11.338a3.1,3.1,0,0,0,.93,2.239,5.391,5.391,0,0,0,1.032.9Z" transform="translate(-178.399 -375.559)" fill="#fff"/>
    <path id="Path_33" data-name="Path 33" d="M467.894,806.049a2.268,2.268,0,0,1-.079.811s-19.4,3.237-23.368,0a10.511,10.511,0,0,0-8.164-2.392s-7.506.2-8.759-2.268c-.522-1.037-.385-3.05-.062-5.034a47.965,47.965,0,0,1,1.315-5.5l.3-.238,1.786-1.434,20.908-.618h.159c-.1,4.275,7.1,9.178,7.1,9.178C466.675,801.383,467.8,804.586,467.894,806.049Z" transform="translate(-211.576 -375.104)" fill="#fff"/>
    <path id="Path_34" data-name="Path 34" d="M467.9,812a2.313,2.313,0,0,1-.085.811s-19.394,3.237-23.363,0a10.51,10.51,0,0,0-8.158-2.392s-7.512.2-8.759-2.268c-.522-1.043-.391-3.05-.068-5.034,2.891.289,7.455,1.009,9.246,2.727,2.71,2.614,7.3,5.221,10.119,5.425C449.035,811.414,462.227,811.833,467.9,812Z" transform="translate(-211.578 -381.059)" opacity="0.1"/>
    <path id="Path_35" data-name="Path 35" d="M373.478,826.183s-9.071,3.333-15.307,3.753a5.809,5.809,0,0,1-5.941-3.77c2.307.777,5.51,1.593,7.194.845,2-.884,9.071-1.457,13.039-1.7a5.583,5.583,0,0,0,1.015.873Z" transform="translate(-179.118 -390.669)" opacity="0.1"/>
    <path id="Path_36" data-name="Path 36" d="M401.929,327.015c-7.483-2.908-17.11-12.517-14.706-17.007a10.046,10.046,0,0,0,.935-3.606,32.922,32.922,0,0,0,.068-5.1,69.867,69.867,0,0,0-1-8.3s23.363.527,22,3.968a12.866,12.866,0,0,0-.351,4.722c.108,1.962.391,4.178.686,6.055.408,2.574.816,4.535.816,4.535s-1.429,2-2.268,2.109S412.666,331.159,401.929,327.015Z" transform="translate(-194.11 -160.135)" fill="#cf6f80"/>
    <path id="Path_37" data-name="Path 37" d="M367.7,796.594l-.176.193c-6.984-8.447-15.431,2.081-15.431,2.081l-.125-.221.431-4.785,13.249-3.441,1.876,5.737Z" transform="translate(-179.006 -375.559)" opacity="0.1"/>
    <path id="Path_38" data-name="Path 38" d="M453.167,789.948s-5.1-.108-7.823,2.3-15.874.522-15.307,0a1.865,1.865,0,0,0,.295-.862l1.786-1.434,20.908-.618C453.1,789.71,453.167,789.948,453.167,789.948Z" transform="translate(-212.807 -375.087)" opacity="0.1"/>
    <path id="Path_39" data-name="Path 39" d="M371.985,664.857a15.774,15.774,0,0,0-.862,2.908,33.285,33.285,0,0,0-.391,8.254c.21,3.968,0,30.562,0,30.562s-4.484,7.092-6.984,9.592,5.1,6.99,5.1,6.99c1.134,6.463-5.737,13.765-5.737,13.765-6.984-8.447-15.431,2.086-15.431,2.086s-4.592-7.937-5.737-10.771,4.484-4.8,6.463-5.947-.1-7.937-.1-7.937-1.672-5.947-3.657-11.372,2.188-32.433,2.188-32.433a41.858,41.858,0,0,1,.731-6.469,10.816,10.816,0,0,0,.153-3.674c-.034-.414-.074-.76-.1-.992s-.051-.34-.051-.34l.079-.136,2.835-5.284S373.345,661.529,371.985,664.857Z" transform="translate(-174.598 -316.331)" fill="#00695c"/>
    <path id="Path_40" data-name="Path 40" d="M448.486,734.8s-5.1-.108-7.823,2.268-15.874.522-15.307,0,.522-4.382.522-4.382c-7.716-10.533-1.134-14.808-1.134-14.808s-3.447-16.582-4.07-22.733c-.437-4.3-.975-15.845-1.264-22.439-.125-2.835-.2-4.785-.2-4.785l6.3-1.27.811-.164,15.2-3.05s.419,2.835.7,5.153a24.084,24.084,0,0,1,.238,2.988c-.1,1.134,0,4.683,0,4.683l.516,10.641a12.086,12.086,0,0,0-.516,3.441c.1,1.355,2.081,20.755,2.081,20.755s3.441,11.576,2.268,12.41S448.486,734.8,448.486,734.8Z" transform="translate(-208.126 -320.566)" fill="#00695c"/>
    <path id="Path_41" data-name="Path 41" d="M409.512,296.968a12.865,12.865,0,0,0-.352,4.722,19.417,19.417,0,0,1-20.647-.385,69.875,69.875,0,0,0-1-8.305S410.873,293.516,409.512,296.968Z" transform="translate(-194.398 -160.135)" opacity="0.1"/>
    <path id="Path_42" data-name="Path 42" d="M412.618,263.08a19.2,19.2,0,0,1-.952,6.015,19.4,19.4,0,0,1-37.836-5.55v-.465a19.4,19.4,0,1,1,38.8,0Z" transform="translate(-188.473 -138.775)" fill="#cf6f80"/>
    <path id="Path_43" data-name="Path 43" d="M401.929,337.253c-7.483-2.908-17.11-12.517-14.706-17.007a10.046,10.046,0,0,0,.935-3.606l10.244,8.419,6.338,5.2,4.819-12.268c.408,2.574.816,4.535.816,4.535s-1.429,2-2.268,2.109S412.666,341.4,401.929,337.253Z" transform="translate(-194.11 -170.373)" opacity="0.1"/>
    <path id="Path_44" data-name="Path 44" d="M375.812,315.141l-8.555,143.713-11.157.731-28.89-83.331,4.739-98.933,1-20.9,12.846,10.55,6.344,5.2,4.961-12.625,9.224,8.039Z" transform="translate(-141.501 -111.054)" fill="#00695c"/>
    <path id="Path_45" data-name="Path 45" d="M376.406,664.891a15.775,15.775,0,0,0-.862,2.908,82.2,82.2,0,0,1-23.391-7.308l-.153-.079.051-.913.028-.476,2.835-5.284S377.766,661.563,376.406,664.891Z" transform="translate(-179.019 -316.365)" opacity="0.1"/>
    <path id="Path_46" data-name="Path 46" d="M425.618,674.5a57.394,57.394,0,0,1-6.27.714c-.125-2.835-.2-4.785-.2-4.785l6.3-1.27Z" transform="translate(-208.1 -323.043)" opacity="0.1"/>
    <path id="Path_47" data-name="Path 47" d="M447.608,668.643c-4.031,1.049-10.255,2.228-15.828,1.491l-.079-3.594,15.2-3.05S447.324,666.3,447.608,668.643Z" transform="translate(-213.536 -320.588)" opacity="0.1"/>
    <path id="Path_48" data-name="Path 48" d="M375.506,519.868c-23.244,3.968-44.531-7.41-44.531-7.41l.2-3.855s.527-43.7-.935-47.054-2.6-20.341-1.774-22.949-3.022-41.714-3.022-41.714l-.624-15.874L302,371.767,312.2,350.5a76.759,76.759,0,0,0,3.549-9.184c1.774-5.522,10.012-10.947,10.012-10.947s8.447-5.42,11.786-5.216,7.716-4.8,7.716-4.8c3.231-8.237,6.157-4.507,6.157-4.507a7.359,7.359,0,0,1-.159,1.219c-1.134,9.042,18.334,37.615,18.612,38.119h0l1.854,45.161,1.876,57.151Z" transform="translate(-157.365 -169.664)" opacity="0.1"/>
    <path id="Path_49" data-name="Path 49" d="M374.393,519.842c-23.244,3.968-44.537-7.41-44.537-7.41l.21-3.855s.527-43.7-.941-47.054-2.6-20.341-1.769-22.949-3.022-41.714-3.022-41.714l-.629-15.874-22.835-9.28,10.2-21.271a77.958,77.958,0,0,0,3.549-9.184c1.769-5.522,10.012-10.947,10.012-10.947s8.447-5.42,11.781-5.216,7.716-4.8,7.716-4.8c3.237-8.237,6.8-4.507,6.8-4.507,0,.391-.34.567-.159,1.219,2.494,8.77,17.71,37.615,17.988,38.119h0l1.876,45.161,1.877,57.151Z" transform="translate(-156.875 -169.638)" fill="#fff"/>
    <path id="Path_50" data-name="Path 50" d="M403.152,357.415c-2.5-1.043-15.743-16.163-15.743-16.163v-3.441c-.482-1.134-3.345-.442-5.669.352l1-20.9,1.134.941C386.355,326.966,402.863,356.91,403.152,357.415Z" transform="translate(-191.899 -170.641)" opacity="0.1"/>
    <path id="Path_51" data-name="Path 51" d="M404.258,355.2c-2.506-1.043-15.749-16.163-15.749-16.163V335.6c-.482-1.134-3.345-.442-5.669.351l1-20.9,1.134.941C387.466,324.756,403.98,354.706,404.258,355.2Z" transform="translate(-192.375 -169.684)" fill="#fff"/>
    <path id="Path_52" data-name="Path 52" d="M352.136,517.617c.312,0,16.163-1.667,16.163-1.667s9.6,18.873,8.969,23.465-1.769,8.657-5.629,7.937-20.777.567-20.777.567Z" transform="translate(-178.525 -256.691)" opacity="0.1"/>
    <path id="Path_53" data-name="Path 53" d="M351.026,515.407c.312,0,16.163-1.667,16.163-1.667s9.592,18.878,8.969,23.465-1.774,8.657-5.629,7.937-20.777.567-20.777.567Z" transform="translate(-178.044 -255.734)" fill="#fff"/>
    <path id="Path_54" data-name="Path 54" d="M366.448,501.05s14.547,7.818,14.859,10.2-7.4-1.043-9.071-1.457a20.757,20.757,0,0,0-3.339-.522l-11.117.3Z" transform="translate(-181.522 -250.238)" fill="#cf6f80"/>
    <circle id="Ellipse_3" data-name="Ellipse 3" cx="1.531" cy="1.531" r="1.531" transform="translate(205.664 184.687)" opacity="0.1"/>
    <circle id="Ellipse_4" data-name="Ellipse 4" cx="1.531" cy="1.531" r="1.531" transform="translate(205.664 184.064)" fill="#3f3d56"/>
    <circle id="Ellipse_5" data-name="Ellipse 5" cx="1.531" cy="1.531" r="1.531" transform="translate(208.482 250.948)" opacity="0.1"/>
    <circle id="Ellipse_6" data-name="Ellipse 6" cx="1.531" cy="1.531" r="1.531" transform="translate(208.482 250.319)" fill="#3f3d56"/>
    <circle id="Ellipse_7" data-name="Ellipse 7" cx="1.531" cy="1.531" r="1.531" transform="translate(207.189 217.818)" opacity="0.1"/>
    <circle id="Ellipse_8" data-name="Ellipse 8" cx="1.531" cy="1.531" r="1.531" transform="translate(207.189 217.194)" fill="#3f3d56"/>
    <path id="Path_55" data-name="Path 55" d="M455.461,430.054s1.043,1.565,0,2.3.1,2.5.1,2.5-2.6,1.525-1.457,2.9.42,7.568.42,7.568L451.4,450.5s.187,3.339.2,7.852c0,7.041-.414,16.939-2.7,21.452l.317,37.025s-10.958,4-20.131,2.784L427.716,460.2s1.984-33.692,2.716-40.155a67.286,67.286,0,0,0,.522-10.119s-.312-10.114-1.361-14.808c0,0-1.134-20.335-1.247-25.965-.051-2.693.091-10.55.249-18.022.176-8.169.374-15.874.374-15.874L426.9,318.882s2.069-.21,2.693.624a5.967,5.967,0,0,0,.907.7h0c3.572,2.415,16.191,9.842,16.191,9.842s6.984,2.778,8.657,6.758,2.835,6.8,3.645,7.937,1.253,6.463,1.253,6.463,2.4,9.808,4.28,11.469,3.248,12.228,3.248,12.228l-16.582,13.039s-1.457,21.69-1.769,22.529S455.461,430.054,455.461,430.054Z" transform="translate(-211.457 -171.333)" fill="#fff"/>
    <path id="Path_56" data-name="Path 56" d="M456.06,429.916s1.037,1.565,0,2.3.1,2.5.1,2.5-2.585,1.542-1.451,2.914.42,7.568.42,7.568L452,450.376s.187,3.339.2,7.852c0,7.041-.414,16.939-2.7,21.452l.312,37.025s-10.975,4-20.137,2.784l-1.355-59.413s1.984-33.692,2.716-40.155a66.658,66.658,0,0,0,.516-10.119s-.312-10.114-1.355-14.808c0,0-1.134-20.335-1.253-25.965-.051-2.693.1-10.55.249-18.022.176-8.169.374-15.874.374-15.874L426.83,318.54s2.733,0,3.362.845a5.38,5.38,0,0,0,.907.7h0c3.572,2.415,16.2,9.842,16.2,9.842s6.979,2.778,8.651,6.758,2.835,6.8,3.651,7.937,1.247,6.463,1.247,6.463,2.4,9.808,4.28,11.469,3.231,12.206,3.231,12.206l-16.582,13.039s-1.457,21.69-1.774,22.529S456.06,429.916,456.06,429.916Z" transform="translate(-211.426 -171.196)" fill="#fff"/>
    <path id="Path_57" data-name="Path 57" d="M436.682,340.9l1.5,4.365L430.3,353.2c.176-8.164.374-15.874.374-15.874L427.94,320.73s2.733,0,3.362.845a5.172,5.172,0,0,0,.907.692h0l6.7,19.332Z" transform="translate(-211.907 -172.144)" opacity="0.1"/>
    <path id="Path_58" data-name="Path 58" d="M435.572,338.685l1.5,4.365-7.88,7.937c.176-8.169.374-15.874.374-15.874L426.83,318.52s2.738,0,3.362.845a5.672,5.672,0,0,0,.907.7h0l6.707,19.326Z" transform="translate(-211.426 -171.187)" fill="#fff"/>
    <path id="Path_59" data-name="Path 59" d="M412.618,263.08a19.2,19.2,0,0,1-.952,6.015.811.811,0,0,1-.612-.153c-.147-5.1-2.659-9.893-5.749-13.969a14.678,14.678,0,0,0-3.118-3.231,6.1,6.1,0,0,0-4.229-1.2c-1.7.232-3.2,1.389-4.921,1.536-2.268.187-4.3-1.383-6.548-1.463a6.434,6.434,0,0,0-4.813,2.234,13.2,13.2,0,0,0-2.579,4.785,27.994,27.994,0,0,0-1.44,8.254c-.028,1.587-.181,3.577-1.655,4.155a8.47,8.47,0,0,0-2.137-6.469l-.034-.034v-.465a19.4,19.4,0,1,1,38.8,0Z" transform="translate(-188.473 -138.775)" opacity="0.1"/>
    <path id="Path_60" data-name="Path 60" d="M396.731,222.6a13.356,13.356,0,0,0-9.422-.737c-1.57.465-3.05,1.219-4.643,1.6-3.4.822-7.37-.068-10.289,1.922a12.305,12.305,0,0,0-3.5,4.666l-2.268,4.32a28.032,28.032,0,0,0-3,7.37,9.409,9.409,0,0,0,1.446,7.608c1.2,1.525,2.976,2.483,4.28,3.917a8.5,8.5,0,0,1,2.132,6.463c1.48-.567,1.621-2.562,1.655-4.15a27.993,27.993,0,0,1,1.44-8.254,13.159,13.159,0,0,1,2.579-4.785,6.446,6.446,0,0,1,4.813-2.234c2.268.079,4.3,1.644,6.548,1.457,1.7-.142,3.209-1.3,4.921-1.531a6.077,6.077,0,0,1,4.229,1.2,14.525,14.525,0,0,1,3.112,3.231c3.1,4.076,5.607,8.855,5.754,13.969.641.471,1.565-.142,1.882-.867a20.728,20.728,0,0,1,.731-2.268,8.363,8.363,0,0,1,2.052-1.825c1.769-1.525,2.211-4.093,2.143-6.423s-.522-4.694-.079-6.984c.266-1.406.867-2.721,1.2-4.11a5.374,5.374,0,0,0-.408-4.144c-1.134-1.757-3.521-2.1-5.6-2.268-2.364-.2-4.479.057-5.987-1.933a21.713,21.713,0,0,0-2.381-2.914C399.764,224.6,396.731,222.724,396.731,222.6Z" transform="translate(-183.947 -129.095)" fill="#512e4e"/>
    <path id="Path_61" data-name="Path 61" d="M307.561,426.083l-5.924-10.953-1.876,16.9s1.043,7.506.833,8.657,4.275,11.469,4.275,11.469S319.681,478.54,325.73,479.9l20.437-14.6-5.42-6.882s-1.876-.731-2.347,0c0,0-10.063-17.314-11.106-18.567s-.839-3.753-.839-3.753-1.565-1.667-1.043-3.231-3.022-6.99-3.022-6.99l3.231-3.022Z" transform="translate(-156.394 -213.027)" opacity="0.1"/>
    <path id="Path_62" data-name="Path 62" d="M300.991,412.93l-1.565,1.247-1.876,16.9s1.043,7.506.833,8.657,4.28,11.469,4.28,11.469,14.808,26.384,20.857,27.745l20.443-14.6-5.425-6.882s-1.876-.731-2.347,0c0,0-10.063-17.314-11.106-18.567s-.833-3.753-.833-3.753-1.565-1.667-1.043-3.231-3.027-6.99-3.027-6.99l3.231-3.022Z" transform="translate(-155.437 -212.074)" fill="#fff"/>
    <path id="Path_63" data-name="Path 63" d="M465.855,522c1.134,1.378.419,7.563.419,7.563l-3.129,5.182s.187,3.345.2,7.852l-5.261,1.644a3.124,3.124,0,0,1-4.053-3.078l.907-29.259,12.274,4.694c-1.043.726.1,2.506.1,2.506S464.71,520.619,465.855,522Z" transform="translate(-223.205 -254.937)" opacity="0.1"/>
    <path id="Path_64" data-name="Path 64" d="M466.96,520.891c1.134,1.378.419,7.568.419,7.568l-3.129,5.182s.187,3.339.2,7.852l-5.357,1.672a3.061,3.061,0,0,1-3.968-3.016l.913-29.349,12.279,4.694c-1.049.726.1,2.5.1,2.5S465.827,519.519,466.96,520.891Z" transform="translate(-223.682 -254.46)" fill="#fff"/>
    <path id="Path_65" data-name="Path 65" d="M475.669,500.513s-.833,5.323-2.92,5.635-3.022,8.611-5.1,8.317-.7-7.716-.629-9.156-2.268-7.4-.516-8.759,7.3,0,7.3,0Z" transform="translate(-228.325 -248.028)" fill="#cf6f80"/>
    <path id="Path_66" data-name="Path 66" d="M478.473,425.627l3.934-7.937s1.565,6.049,1.565,9.28,2.188,3.549,2.188,3.549,2.4,2.835,1.134,4.9-1.774,7.2-1.774,7.2.414,9.8-1.463,11.157-2.268,4.592-2.268,4.592-3.447,6.151-3.339,7.614-4.8,11.367-4.8,11.367,2.4-12.308-11.576-17.625c0,0-.108-4.178.935-5.323s2.67-1.667,1.65-7.455-.295-12.7-.295-14.094S467.5,422.8,467.5,422.8Z" transform="translate(-226.69 -214.136)" opacity="0.1"/>
    <path id="Path_67" data-name="Path 67" d="M481.079,415.69l3.436,1.134s1.57,6.049,1.57,9.28,2.188,3.549,2.188,3.549,2.4,2.835,1.134,4.9-1.769,7.2-1.769,7.2.414,9.8-1.463,11.157-2.3,4.592-2.3,4.592-3.441,6.151-3.333,7.614-4.8,11.367-4.8,11.367,2.4-12.308-11.576-17.625c0,0-.1-4.178.941-5.323s2.67-1.667,1.65-7.455-.295-12.7-.295-14.094,3.129-10.051,3.129-10.051Z" transform="translate(-227.596 -213.27)" fill="#fff"/>
    <path id="Path_68" data-name="Path 68" d="M360.15,777.146s5.476-3.441,9.071-.941S360.15,777.146,360.15,777.146Z" transform="translate(-182.548 -369.008)" opacity="0.1"/>
    <path id="Path_69" data-name="Path 69" d="M435.21,759.767a11.086,11.086,0,0,1,8.918,3.759C448.2,767.907,435.21,759.767,435.21,759.767Z" transform="translate(-215.056 -362.27)" opacity="0.1"/>
    <g id="Group_1" data-name="Group 1" transform="translate(179.435 104.69)" opacity="0.1">
      <path id="Path_70" data-name="Path 70" d="M417.387,265.9a8.41,8.41,0,0,0-2.058,1.831A20.749,20.749,0,0,0,414.6,270c-.317.737-1.242,1.338-1.882.873-.147-5.1-2.664-9.893-5.754-13.974a14.523,14.523,0,0,0-3.112-3.231,6.094,6.094,0,0,0-4.235-1.2c-1.7.232-3.2,1.389-4.915,1.531-2.268.193-4.3-1.378-6.554-1.457a6.418,6.418,0,0,0-4.807,2.239,13.13,13.13,0,0,0-2.579,4.779,28.028,28.028,0,0,0-1.44,8.254c-.034,1.582-.181,3.555-1.644,4.144a7.765,7.765,0,0,1,0,1.259c1.474-.567,1.621-2.562,1.655-4.15a27.994,27.994,0,0,1,1.44-8.254,13.157,13.157,0,0,1,2.579-4.785,6.434,6.434,0,0,1,4.807-2.234c2.268.079,4.309,1.644,6.554,1.457,1.7-.142,3.209-1.3,4.915-1.531a6.094,6.094,0,0,1,4.235,1.2,14.525,14.525,0,0,1,3.112,3.231c3.09,4.076,5.607,8.855,5.754,13.969.641.471,1.565-.142,1.882-.867a22,22,0,0,1,.726-2.268,8.39,8.39,0,0,1,2.058-1.826c1.769-1.525,2.211-4.093,2.143-6.423v-.215A7.443,7.443,0,0,1,417.387,265.9Z" transform="translate(-369.576 -247.259)"/>
      <path id="Path_71" data-name="Path 71" d="M369.346,268.935c-1.3-1.434-3.084-2.392-4.28-3.912a8.3,8.3,0,0,1-1.65-4.643,8.73,8.73,0,0,0,1.65,5.89c1.2,1.525,2.976,2.483,4.28,3.917a8.5,8.5,0,0,1,2.137,5.057,8.5,8.5,0,0,0-2.137-6.31Z" transform="translate(-363.385 -250.697)"/>
      <path id="Path_72" data-name="Path 72" d="M452.407,244.422c-.334,1.389-.93,2.71-1.2,4.11a13.1,13.1,0,0,0-.176,2.835,11.008,11.008,0,0,1,.176-1.61c.272-1.406.867-2.721,1.2-4.11a6.975,6.975,0,0,0,.187-2.347A7.884,7.884,0,0,1,452.407,244.422Z" transform="translate(-401.336 -243.3)"/>
    </g>
    <ellipse id="Ellipse_9" data-name="Ellipse 9" cx="55.24" cy="8.872" rx="55.24" ry="8.872" transform="translate(20.214 413.444)" fill="#00695c" opacity="0.1"/>
    <rect id="Rectangle_27" data-name="Rectangle 27" width="3.555" height="80.032" transform="translate(73.68 252.354)" fill="#535461"/>
    <path id="Path_73" data-name="Path 73" d="M185.67,640.361l-.221,3.606-.317,5.1-.13,2.12-.312,5.1-.136,2.12-.317,5.1-3.583,57.865a9.808,9.808,0,0,1-9.785,9.2H152.239a9.8,9.8,0,0,1-9.779-9.2l-3.566-57.9-.317-5.1-.13-2.12-.317-5.1-.13-2.12-.317-5.1-.227-3.606a5.1,5.1,0,0,1,5.1-5.391h38.1a5.068,5.068,0,0,1,5.012,5.431Z" transform="translate(-86.099 -308.219)" fill="#3f3d56"/>
    <path id="Path_74" data-name="Path 74" d="M138.371,592.24l-.317,5.085H90.9l-.317-5.085Z" transform="translate(-39.021 -256.492)" fill="#9d9cb5"/>
    <path id="Path_75" data-name="Path 75" d="M138.265,604.95l-.312,5.091H91.687l-.317-5.091Z" transform="translate(-39.363 -261.997)" fill="#9d9cb5"/>
    <path id="Path_76" data-name="Path 76" d="M138.16,617.68l-.312,5.085H92.477l-.317-5.085Z" transform="translate(-39.705 -267.51)" fill="#9d9cb5"/>
    <path id="Path_77" data-name="Path 77" d="M93.387,544.588c20.7,14.978,29.338,38.4,29.338,38.4s-24.944-.856-45.648-15.834-29.327-38.4-29.327-38.4S72.683,529.61,93.387,544.588Z" transform="translate(-47.253 -262.238)" fill="#00695c"/>
    <path id="Path_78" data-name="Path 78" d="M47.72,528.76s25.9,14.371,34.2,26.271,40.79,27.96,40.79,27.96" transform="translate(-47.24 -262.238)" fill="none" stroke="#535461" stroke-miterlimit="10" stroke-width="2"/>
    <path id="Path_79" data-name="Path 79" d="M132.842,496.877c11.265,8.147,15.976,20.9,15.976,20.9s-13.578-.465-24.848-8.612S108,488.26,108,488.26,121.572,488.725,132.842,496.877Z" transform="translate(-73.346 -244.699)" fill="#00695c"/>
    <path id="Path_80" data-name="Path 80" d="M108,488.26s14.094,7.823,18.612,14.3,22.206,15.216,22.206,15.216" transform="translate(-73.346 -244.699)" fill="none" stroke="#535461" stroke-miterlimit="10" stroke-width="2"/>
    <path id="Path_81" data-name="Path 81" d="M196.871,524.888C183.928,539.112,181.19,557.7,181.19,557.7s18.249-4.479,31.18-18.708,15.681-32.813,15.681-32.813S209.814,510.664,196.871,524.888Z" transform="translate(-105.044 -252.459)" fill="#00695c"/>
    <path id="Path_82" data-name="Path 82" d="M228.063,506.19s-16.86,14.581-21.146,24.627-25.727,26.889-25.727,26.889" transform="translate(-105.044 -252.464)" fill="none" stroke="#535461" stroke-miterlimit="10" stroke-width="2"/>
    <path id="Path_83" data-name="Path 83" d="M949.709,414.865s-9.36-46.567-5.777-52.36c0,0,.13-5.386-.085-12.251v-.788a17.442,17.442,0,0,0,1.967,1.134,15.919,15.919,0,0,0,10.715,1.383l-2.835-3.158a5.233,5.233,0,0,1-1.536-2.568,5.38,5.38,0,0,1,.612-2.778c2.693-6.8,2.835-15.358-2.353-20.551-4.382-4.365-5.448-10-10.2-13.986-3.475-2.92-5.386-7.2-7.189-11.338a63.772,63.772,0,0,1-3.934-10.732c-.68-2.9-.952-5.9-1.888-8.725s-2.687-5.578-5.425-6.843a20.474,20.474,0,0,1-2.948-1.3,12.732,12.732,0,0,1-2.716-3.192c-4.292-5.669-18.663-2.33-25.466-.028a14.326,14.326,0,0,0-5.034,2.789l.062-.1c.051-.085.113-.17.17-.255a8.945,8.945,0,0,0-1.9,2.126c-.992,1.57-1.406,3.4-2.234,5.1-1,2.013-6.548,7.631-4.161,9.893a2.01,2.01,0,0,0,.567.363,4.9,4.9,0,0,0,2.835.283l-.1.244a16.57,16.57,0,0,0-1.23,6.287,17.016,17.016,0,0,0,17.166,16.866,17.33,17.33,0,0,0,5.255-.811c.04.215.074.431.113.646a1.985,1.985,0,0,0,.04.255h0l-.3.419a.57.57,0,0,0-.051-.074l-8.9,12.438c-1.361.958-9.2,6.627-9.638,10.879-.465,4.654-.93,10.1-.93,10.1l-.062,1.168a3.5,3.5,0,0,1-2.835.765c-2.778-.454-2.778,10.2-2.778,10.2s-1.848,1.7-3.118.227-4.626,3.521-4.626,3.521l-21.033.907h0l-.482.028-1.134-3.509a1.48,1.48,0,0,0-1.854-.947,1.7,1.7,0,0,0-.255.108l-.079.045-.147.1-.074.068a1.136,1.136,0,0,0-.113.119l-.068.079-.034.034h0a1.429,1.429,0,0,0-.2,1.27l.975,3.01c-4.059.816-8.209,3.118-4.824,9.456l-17.155-3.169,5.55,4.66,28.652,5.913c-.38.68-.13,1.667,1.054,3.056,5.1,5.992,14.4,7.619,18.141,8.039a32.212,32.212,0,0,0,3.679,6.236l-.323,5.97s-9.473,45.5-11.208,47.808a26.971,26.971,0,0,0,2.4-3.158c-2.75,9.348-6.593,22.144-7.6,24.06-1.621,3.061-3.124,15.448-1.276,16.242.567.244,2.188.125,4.5-.051v1.026l-.1,38.885s.465,23.85-.811,26.123-1.616,7.041-1.616,7.041-5.1,9.405-9.144,13.187a.616.616,0,0,1-.091.079l-.125-.884s-4.858,6.134-15.607,5.788c0,0-6.469,4.206,3.124,4.433s21.843-.34,21.843-.34S872.064,568.8,879.23,570.5v9.881h2.194v-10.04a9,9,0,0,0,3.906-5.913,7.189,7.189,0,0,0-2.562-6.65,4.252,4.252,0,0,1-1.4-3.107l-.079.068a6,6,0,0,0-.074-.612c-.629-5.1-1.417-15.63,1.366-23.419,3.815-10.681,4.972-25.557,2.194-34.412a79.142,79.142,0,0,1-2.205-8.623c-.068-.369-.13-.72-.187-1.049a44.7,44.7,0,0,1,5.63,1.134c6.434,1.774,20.511,2.1,32.53,2.007.028.329.062.675.1,1.02a37.137,37.137,0,0,0,1.338,7.1c1.508,4.535,2.2,24.531,2.2,24.531s1.945,16.441.884,23.13c-.567,3.719-1.134,7.455-1.457,11.208v.074s-3.186,9.071-5.516,14c-.057.125-.119.249-.176.369a7.371,7.371,0,0,0-1.82.4s-3.124,6.236-6.236,7.268-2.081,4.428,4.966,3.18,17.688-2.268,17.688-2.268l.459-6.361,2.166-2.71-.567,6.344,2.307-.454-.306-7.716,3.543-4.433s4.28-3.81-2.081-11.3v.164c-.068-.108-.13-.221-.2-.329v-.034c-1.054-1.633-1.894-4.677-.357-10.08,2.778-9.762,4.394-18.623,4.394-18.623s6.2-23.737-1.253-34.967h.329a18.888,18.888,0,0,1-1.6-4.989q-.057-.306-.1-.629c5.516-.318,10.93-1.315,15.346-3.47C954.567,480.162,951.908,423.833,949.709,414.865Zm-70.031-39.287v.113l-1.134.057Zm-3.889.539a1.253,1.253,0,0,0-.51.244,5.034,5.034,0,0,0-.89,2.33l-1.769-.4s-1.242-.266-3.027-.567l-.845-.85C871.072,376.683,873.487,376.4,875.788,376.116Z" transform="translate(-382.772 -147.442)" fill="url(#linear-gradient-2)"/>
    <path id="Path_84" data-name="Path 84" d="M971.995,742.664l-.675,8.033,2.262-.453-.34-8.714Z" transform="translate(-420.455 -321.147)" fill="#1d2366"/>
    <path id="Path_85" data-name="Path 85" d="M905.157,698.141c-2.727,7.767-1.956,18.249-1.344,23.34.227,1.882.437,3.027.437,3.027s-4.076,9.286-4.416,9.638-12,7.466-12,7.466l-8.147,4.756s-8.266-3.623-4.3-4.87a6.015,6.015,0,0,0,2.137-1.457c3.968-3.77,8.952-13.141,8.952-13.141s.34-4.756,1.587-7.018.794-26.033.794-26.033l.1-38.749V650.05l15.505.113a35.08,35.08,0,0,0,.669,5.1,78,78,0,0,0,2.16,8.594C910.021,672.7,908.888,687.5,905.157,698.141Z" transform="translate(-405.224 -314.767)" fill="#ffb0b1"/>
    <path id="Path_86" data-name="Path 86" d="M904.25,779.086s-4.076,9.286-4.416,9.638-12,7.466-12,7.466l-8.147,4.756s-8.266-3.623-4.3-4.87a6.014,6.014,0,0,0,2.137-1.457l.351,2.477,2.716-.113,23.244-20.914C904.041,777.941,904.25,779.086,904.25,779.086Z" transform="translate(-405.224 -369.344)" opacity="0.1"/>
    <path id="Path_87" data-name="Path 87" d="M892.966,777l-23.374,21.055-2.716.113-.567-3.968s-4.751,6.111-15.307,5.771c0,0-6.338,4.19,3.056,4.416s21.39-.34,21.39-.34,8.379-13.039,15.392-11.338v9.847h2.154v-9.938a8.951,8.951,0,0,0,3.821-5.9,7.222,7.222,0,0,0-2.5-6.622,4.269,4.269,0,0,1-1.349-3.1Z" transform="translate(-394.223 -369.747)" fill="#1d2366"/>
    <path id="Path_88" data-name="Path 88" d="M1007.468,709.928c-1.508,5.386-.686,8.419.346,10.046v.034a18.567,18.567,0,0,1,2.71,6.616l.091.51-10.635,15.505-5.771,2.268s-9.28-3.169-7.585-4.076a8.686,8.686,0,0,0,1.848-3.027c2.268-4.9,5.4-13.952,5.4-13.952v-.074c.329-3.736.85-7.461,1.429-11.168,1.037-6.673-.867-23.051-.867-23.051s-.68-19.916-2.154-24.445a37.38,37.38,0,0,1-1.321-7.052c-.306-2.835-.374-5.17-.374-5.17s6.111-8.5,17.314.68a12.322,12.322,0,0,1,2.341,2.54c7.738,11.01,1.508,35.262,1.508,35.262S1010.183,700.194,1007.468,709.928Z" transform="translate(-453.774 -314.445)" fill="#ffb0b1"/>
    <path id="Path_89" data-name="Path 89" d="M1010.644,781.016l-10.635,15.505-5.771,2.268s-9.28-3.169-7.585-4.076a8.686,8.686,0,0,0,1.848-3.027c3.929-.034,5.964,3.708,5.964,3.708l4.978-.794s6.565-12.9,8.039-13.691.227-5.89.227-5.89v-1.3c.04.045.074.1.119.142v.034a18.565,18.565,0,0,1,2.71,6.616Z" transform="translate(-453.787 -368.327)" opacity="0.1"/>
    <path id="Path_90" data-name="Path 90" d="M988.959,795.979s-2.835-5.2-8.266-3.282c0,0-3.056,6.236-6.111,7.245s-2.035,4.411,4.87,3.169,17.314-2.268,17.314-2.268l.453-6.344,7.018-8.94s4.184-3.793-2.041-11.259v1.3s1.247,5.1-.227,5.89-8.016,13.7-8.016,13.7Z" transform="translate(-447.942 -368.578)" fill="#1d2366"/>
    <path id="Path_91" data-name="Path 91" d="M915.662,650.143a35.1,35.1,0,0,0,.669,5.1,71.119,71.119,0,0,0-16.191-.164V650.03Z" transform="translate(-416.409 -314.759)" opacity="0.1"/>
    <path id="Path_92" data-name="Path 92" d="M1014.062,657.518s-9.071.442-19.887.533c-.306-2.835-.374-5.17-.374-5.17s6.111-8.5,17.314.68a12.324,12.324,0,0,1,2.341,2.54,13.815,13.815,0,0,0,.607,1.417Z" transform="translate(-456.972 -314.44)" opacity="0.1"/>
    <path id="Path_93" data-name="Path 93" d="M969.5,580.637s-39.729,1.922-51.839-1.474-24.111-.453-25.919-1.242-.34-13.13,1.247-16.185,10.3-33.958,10.3-33.958l8.379-43.687,8.827-2.432.624-.176,15.38-4.241,11.27-3.112s22.41,87.492,20.488,93.944a16.52,16.52,0,0,0-.329,7.591A18.948,18.948,0,0,0,969.5,580.637Z" transform="translate(-412.412 -238.579)" fill="#1d2366"/>
    <path id="Path_94" data-name="Path 94" d="M872.81,439s-7.937,8.5-1.927,13.243,9.961.453,9.961.453Z" transform="translate(-402.764 -223.365)" fill="#c7daf5"/>
    <path id="Path_95" data-name="Path 95" d="M872.81,439s-7.937,8.5-1.927,13.243,9.961.453,9.961.453Z" transform="translate(-402.764 -223.365)" opacity="0.1"/>
    <path id="Path_96" data-name="Path 96" d="M976.139,328.539s-.93.884-2.33,2.188c-2,1.865-4.949,4.592-7.568,6.877-3.628,3.158-6.622,5.476-5.55,3.5s.867-5.425.334-8.651c-.04-.215-.074-.431-.113-.641a59.406,59.406,0,0,0-1.752-7.007s5.862-7.574,9.1-10.562c1.208-1.134,2.052-1.6,2.1-.811a26.341,26.341,0,0,0,1.837,5.885c.028.079.057.153.091.232.658,1.7,1.4,3.447,2.052,4.955C975.345,326.815,976.139,328.539,976.139,328.539Z" transform="translate(-441.97 -168.813)" fill="#ffb0b1"/>
    <path id="Path_97" data-name="Path 97" d="M972.3,319.552a16.826,16.826,0,0,1-11.27,12.9,58.985,58.985,0,0,0-1.865-7.648s11.038-14.258,11.208-11.372A26.977,26.977,0,0,0,972.3,319.552Z" transform="translate(-441.97 -168.818)" opacity="0.1"/>
    <path id="Path_98" data-name="Path 98" d="M944.3,352.463l1.429-2.013s.947,5.771,4.428,3.226,3.651,19.156,3.651,19.156l-3.736,55.858-27-1.616.765-26.991,3.056-13.606,7.557-19.78,4.5-6.537Z" transform="translate(-426.34 -185.015)" opacity="0.1"/>
    <path id="Path_99" data-name="Path 99" d="M953.816,373.42l-3.4,50.507-.357,5.352-15.052-.9-.567-.034-11.338-.68.765-27,3.056-13.606,7.557-19.78,4.5-6.537,5.352-7.727,1.429-2.007s.947,5.771,4.428,3.226l.074-.051h0C953.657,352.03,953.816,373.42,953.816,373.42Z" transform="translate(-426.353 -185.258)" fill="#1d2366"/>
    <path id="Path_100" data-name="Path 100" d="M903.784,406.26s-1.355,2.835-4.076,2.375-2.715,10.2-2.715,10.2-1.808,1.7-3.056.227-4.535,3.509-4.535,3.509l-20.6.907s9.167,4.19,7.37,16.866c0,0,31.124-1.928,32.144-4.87S903.784,406.26,903.784,406.26Z" transform="translate(-402.836 -209.186)" fill="#fff"/>
    <path id="Path_101" data-name="Path 101" d="M903.784,406.26s-1.355,2.835-4.076,2.375-2.715,10.2-2.715,10.2-1.808,1.7-3.056.227-4.535,3.509-4.535,3.509l-20.6.907s9.167,4.19,7.37,16.866c0,0,31.124-1.928,32.144-4.87S903.784,406.26,903.784,406.26Z" transform="translate(-402.836 -209.186)" opacity="0.03"/>
    <path id="Path_102" data-name="Path 102" d="M777.66,389.76l5.431,4.637,44.707,9.394-5.544-5.658Z" transform="translate(-336.584 -168.801)" fill="#fff"/>
    <path id="Path_103" data-name="Path 103" d="M935.935,353.1c-.743,1.134-2.869,6.939-4.643,12.007-1.48,4.224-2.716,7.937-2.716,7.937s-2.886,18.788-4.36,22.183-.675,16.639-.675,16.639l-5.493,32.705s-2.489,16.866-6.332,26.94c-3.793,9.915-8.016,14.564-8.147,14.711,1.7-2.3,10.97-47.621,10.97-47.621l3.061-57.156s.448-5.431.9-10.074,9.638-10.981,9.638-10.981L937,347.8C937.885,348.991,937.29,351.065,935.935,353.1Z" transform="translate(-417.895 -183.868)" fill="#fff"/>
    <path id="Path_104" data-name="Path 104" d="M904.237,477.142s-13.039-.567-19.355-8.152,14.6-3.027,14.6-3.027l5.437,1.247Z" transform="translate(-409.287 -234.454)" fill="#ffb0b1"/>
    <path id="Path_105" data-name="Path 105" d="M990.853,517.107a16.519,16.519,0,0,0-.329,7.591c-14.224,1.009-29.44-2.835-29.44-2.835-2.835,2.608-10.3,6.452-10.3,6.452l-4.07-50.456c-2.6-6.8-3.623-42.445-3.623-42.445s.232-1.865.567-4.66a.537.537,0,0,1,.028-.21c1.015-7.806,3.027-22.461,4.014-24.44,1.361-2.721-4.184-9.961-4.184-9.961l2.523-21.514.306-2.6c5.318-2.375,9.394-9.961,9.394-9.961l3.129-5.482h0c3.4-2.183,3.577,19.207,3.577,19.207l-3.4,50.507,11.27-3.112S992.774,510.656,990.853,517.107Z" transform="translate(-435.01 -187.607)" opacity="0.1"/>
    <path id="Path_106" data-name="Path 106" d="M1005.97,510.272c-15.505,7.7-43.687.567-43.687.567-2.834,2.608-10.3,6.451-10.3,6.451l-4.076-50.456c-2.6-6.8-3.617-42.445-3.617-42.445s3.277-26.594,4.637-29.31a4.367,4.367,0,0,0-.266-3.243,41.033,41.033,0,0,1-2.483-18.986l1.089-9.246.3-2.591c5.323-2.381,9.4-9.966,9.4-9.966l2.835-4.966,5.216-9.15,2.472-4.331.42.38,3.2,2.9,3.4,2.835c4.439,3.742,12.109,10.329,16.066,14.36,3.481,3.549,4.581,17.353,4.9,27.745.21,6.843.085,12.206.085,12.206-3.509,5.777,5.669,52.156,5.669,52.156C1003.368,454.147,1005.97,510.272,1005.97,510.272Z" transform="translate(-435.53 -177.285)" fill="#fff"/>
    <path id="Path_107" data-name="Path 107" d="M964.143,364.329s-10.641,20.256-9.405,27.955,4.751,16.412,3.056,18.447a6.264,6.264,0,0,1-4.983,2.489c-1.7.113-6.236,3.282-6.236,3.623s-4.189.34-7.937,1.928a49.416,49.416,0,0,1-9.28,2.489s-10.771-.34-11.775.68-2.035,7.126.113,12,4.535,8.5,6.338,9.167,13.243-3.169,22.524-4.076,19.354-8.26,19.354-8.26,11.095-3.968,13.039-10.641-2.375-43.346-2.375-43.346S973.31,359.686,964.143,364.329Z" transform="translate(-423.465 -190.68)" opacity="0.03"/>
    <path id="Path_108" data-name="Path 108" d="M961.755,361.33s-10.641,20.262-9.394,27.955,4.751,16.412,3.05,18.453a6.236,6.236,0,0,1-4.978,2.489c-1.7.113-6.236,3.282-6.236,3.623s-4.19.34-7.937,1.922a49.9,49.9,0,0,1-9.28,2.489s-10.771-.34-11.769.68-2.041,7.132.113,12,4.535,8.5,6.338,9.167,13.243-3.169,22.524-4.07,19.354-8.266,19.354-8.266,11.089-3.968,13.011-10.635-2.375-43.352-2.375-43.352S970.922,356.693,961.755,361.33Z" transform="translate(-422.439 -189.382)" opacity="0.03"/>
    <path id="Path_109" data-name="Path 109" d="M963.561,362.535S952.92,382.8,954.168,390.49s4.751,16.412,3.056,18.447a6.236,6.236,0,0,1-4.983,2.494c-1.7.113-6.236,3.282-6.236,3.617s-4.184.34-7.937,1.928a49.532,49.532,0,0,1-9.28,2.489s-10.771-.34-11.775.68-2.035,7.132.113,12,4.535,8.5,6.338,9.167,13.243-3.169,22.524-4.076,19.354-8.26,19.354-8.26,11.095-3.968,13.039-10.641-2.347-43.346-2.347-43.346S972.723,357.92,963.561,362.535Z" transform="translate(-423.219 -189.906)" fill="#fff"/>
    <path id="Path_110" data-name="Path 110" d="M994.877,458.613s-8.5-1.7-5.544,1.134,2.942,5.318,6.565,5.2S994.877,458.613,994.877,458.613Z" transform="translate(-454.766 -231.64)" opacity="0.1"/>
    <path id="Path_111" data-name="Path 111" d="M1024.173,566.58s-3.844,2.6,3.509,8.6S1024.173,566.58,1024.173,566.58Z" transform="translate(-469.691 -278.618)" opacity="0.1"/>
    <path id="Path_112" data-name="Path 112" d="M1011.874,604.31c0,.34-1.361,12.472,3.73,15.505S1011.874,604.31,1011.874,604.31Z" transform="translate(-464.728 -294.958)" opacity="0.1"/>
    <path id="Path_113" data-name="Path 113" d="M862.039,436.59c-4.1.142-12.971,1.395-8.373,9.972,4.065,7.591,10.9,2.517,14.74-1.332A14.484,14.484,0,0,0,862.039,436.59Z" transform="translate(-395.724 -222.321)" fill="#ffb0b1"/>
    <path id="Path_114" data-name="Path 114" d="M881.39,451Z" transform="translate(-408.289 -228.562)" fill="#ffb0b1"/>
    <path id="Path_115" data-name="Path 115" d="M880.74,451.576l.17-.176Z" transform="translate(-408.007 -228.735)" fill="#ffb0b1"/>
    <path id="Path_116" data-name="Path 116" d="M976.786,339.318c-4.354,2.976-8,5.488-8.719,6.009-1.95,1.446-5.669,9.932-8.067,14.264-1.911,3.487-8.118,4.382-10.46,4.6l.3-2.591c5.323-2.381,9.4-9.966,9.4-9.966l10.522-18.447,3.623,3.294Z" transform="translate(-437.804 -177.54)" opacity="0.1"/>
    <path id="Path_117" data-name="Path 117" d="M976.786,338.718c-4.354,2.976-8,5.488-8.719,6.015-1.95,1.44-5.669,9.927-8.067,14.258-1.911,3.487-8.118,4.382-10.46,4.6l.3-2.591c5.323-2.381,9.4-9.966,9.4-9.966l10.522-18.447,3.623,3.282S974.745,336.995,976.786,338.718Z" transform="translate(-437.804 -177.28)" fill="#dce7ff"/>
    <path id="Path_118" data-name="Path 118" d="M957.128,305.076a16.815,16.815,0,1,1-14.294-16.622A16.787,16.787,0,0,1,957.128,305.076Z" transform="translate(-426.524 -158.083)" fill="#ffb0b1"/>
    <path id="Path_119" data-name="Path 119" d="M987.4,361.625a14.945,14.945,0,0,1-5.425-5.828c-.947-1.871-1.576-4.031-3.192-5.357-1.457-1.191-3.4-1.48-5.216-2.013-5.964-1.763-10.964-7.206-11.151-13.419-.091-2.925.822-5.845.408-8.742a9.682,9.682,0,0,0-1.893-4.507A15.523,15.523,0,0,0,959.3,320c-.794-.748-1.627-1.474-2.353-2.268a8.806,8.806,0,0,1-1.191-1.616,7.774,7.774,0,0,1-.652-1.5c-1.134-3.47-.1-7.585-1.349-11.095l-.068-.193c-.471-1.247-1.429-2.494-2.761-2.591s-2.472,1.009-3.742,1.5c-2.659,1.032-5.527-.726-7.744-2.517s-4.717-3.838-7.534-3.441c-1.865.266-3.339,1.536-5.057,2.194a7.09,7.09,0,0,1-1.2.346,16.809,16.809,0,0,1,32.411,6.264,16.638,16.638,0,0,1-.368,3.509c.028.079.057.153.091.232.658,1.7,1.4,3.447,2.052,4.955l3.2,2.9,3.4,2.835c4.439,3.742,12.109,10.329,16.066,14.36C985.987,337.435,987.075,351.234,987.4,361.625Z" transform="translate(-427.457 -158.083)" opacity="0.1"/>
    <path id="Path_120" data-name="Path 120" d="M923.855,278.257c.811-1.65,1.213-3.5,2.183-5.063a12.061,12.061,0,0,1,6.457-4.6c6.661-2.3,20.738-5.629,24.944,0a12.269,12.269,0,0,0,2.659,3.175,19.741,19.741,0,0,0,2.886,1.3c2.682,1.259,4.394,4,5.306,6.8s1.185,5.805,1.854,8.691a63.9,63.9,0,0,0,3.855,10.7c1.763,4.116,3.634,8.385,7.035,11.293,4.643,3.968,5.669,9.587,9.978,13.94,5.1,5.17,4.938,13.7,2.307,20.477a5.624,5.624,0,0,0-.6,2.767,5.425,5.425,0,0,0,1.5,2.562l2.789,3.146a15.684,15.684,0,0,1-17.138-7.9c-.947-1.871-1.576-4.025-3.2-5.357-1.451-1.191-3.4-1.474-5.21-2.007-5.964-1.769-10.964-7.217-11.151-13.43-.091-2.92.822-5.839.408-8.73a9.637,9.637,0,0,0-1.9-4.535c-1.559-2.035-3.912-3.4-5.182-5.669-2.149-3.793-.516-8.719-2.064-12.79-.476-1.247-1.429-2.494-2.761-2.591s-2.472,1.009-3.747,1.5c-2.653,1.032-5.522-.72-7.739-2.517s-4.717-3.838-7.54-3.435c-1.865.261-3.333,1.531-5.051,2.194-1.27.488-3.844.924-4.955-.147C917.438,285.871,922.875,280.275,923.855,278.257Z" transform="translate(-424.665 -148.226)" fill="#591d4b"/>
    <path id="Path_121" data-name="Path 121" d="M981.355,347.886c-.952-1.871-1.576-4.025-3.2-5.352-1.451-1.191-3.4-1.48-5.216-2.013-5.958-1.763-10.958-7.211-11.151-13.425-.091-2.92.822-5.845.414-8.736a9.694,9.694,0,0,0-1.9-4.507c-1.565-2.035-3.917-3.4-5.182-5.669-2.149-3.787-.516-8.714-2.069-12.79-.471-1.242-1.429-2.489-2.755-2.591s-2.477,1.015-3.747,1.508c-2.653,1.032-5.527-.726-7.738-2.517s-4.722-3.838-7.54-3.441c-1.865.266-3.339,1.536-5.051,2.194-1.27.488-3.849.93-4.961-.142-2.336-2.268,3.1-7.852,4.076-9.859.811-1.655,1.213-3.5,2.188-5.063.051-.085.108-.17.164-.255a9,9,0,0,0-1.865,2.12c-.969,1.565-1.372,3.4-2.183,5.063-.981,2.007-6.417,7.608-4.076,9.859,1.134,1.077,3.685.635,4.955.147,1.7-.663,3.186-1.933,5.051-2.194,2.835-.4,5.329,1.644,7.54,3.435s5.1,3.549,7.744,2.517c1.27-.493,2.381-1.6,3.742-1.5s2.268,1.344,2.761,2.591c1.548,4.07-.085,9,2.064,12.79,1.27,2.228,3.623,3.623,5.182,5.669a9.637,9.637,0,0,1,1.9,4.535c.414,2.891-.5,5.811-.408,8.731.187,6.236,5.187,11.661,11.151,13.43,1.8.533,3.759.816,5.21,2.007,1.627,1.332,2.268,3.487,3.2,5.357a15.684,15.684,0,0,0,17.138,7.9l-1.315-1.485A15.854,15.854,0,0,1,981.355,347.886Z" transform="translate(-424.571 -152.439)" opacity="0.1"/>
    <path id="Path_122" data-name="Path 122" d="M954.092,353.657c-.743,1.134-2.869,6.939-4.643,12.007-1.661-.646-3.169-4.768-3.169-4.768l8.855-12.6C956.042,349.547,955.447,351.616,954.092,353.657Z" transform="translate(-436.392 -184.084)" opacity="0.1"/>
    <path id="Path_123" data-name="Path 123" d="M954.692,353.062c-.743,1.134-2.869,6.939-4.643,12.007-1.661-.641-3.169-4.768-3.169-4.768l8.855-12.591C956.642,348.952,956.047,351.026,954.692,353.062Z" transform="translate(-436.652 -183.829)" fill="#dce7ff"/>
    <path id="Path_124" data-name="Path 124" d="M866.037,446.042l-4.909-15.482a1.446,1.446,0,0,1,.941-1.82h0a1.451,1.451,0,0,1,1.814.941l4.909,15.465-.487,3.237Z" transform="translate(-399.484 -218.892)" fill="#be8b87"/>
    <path id="Path_125" data-name="Path 125" d="M861.77,429.216h0a1.451,1.451,0,0,1,1.82.941l4.91,15.465-.369,2.426.357.374.487-3.237-4.938-15.465a1.451,1.451,0,0,0-1.814-.941h0a1.451,1.451,0,0,0-.754.567,1.976,1.976,0,0,1,.3-.13Z" transform="translate(-399.662 -218.91)" fill="#fff" opacity="0.1"/>
    <path id="Path_126" data-name="Path 126" d="M822.6,400.013l2.755-.873-.4,2.653-.085.584-.8-.839Z" transform="translate(-356.047 -172.864)" fill="#efc8c4"/>
    <path id="Path_127" data-name="Path 127" d="M872.42,461.858a.567.567,0,0,1,.176-.147.249.249,0,0,1,.266,0,.7.7,0,0,1,.1.153.488.488,0,0,0,.351.232l-.085.567Z" transform="translate(-404.404 -233.184)" fill="#727a9c"/>
    <path id="Path_128" data-name="Path 128" d="M861.13,441.7s9.847-.057,7.529,4.133a8.857,8.857,0,0,1-5.941,4.694Z" transform="translate(-399.515 -224.534)" fill="#ffb0b1"/>
    <path id="Path_129" data-name="Path 129" d="M654.136,110.05h-.425a48.49,48.49,0,0,0-40.484,22.161,48.49,48.49,0,0,0-40.483-22.161h-.425a48.188,48.188,0,0,0-47.729,48.16c0,15.766,6.905,38.136,20.369,56.544,25.653,35.075,68.268,65.762,68.268,65.762s42.615-30.682,68.262-65.762c13.47-18.408,20.369-40.778,20.369-56.544A48.188,48.188,0,0,0,654.136,110.05Zm-6.083,107.4a9.553,9.553,0,0,1-8.884-6.134H629.056a3.2,3.2,0,0,1-3.01-2.177l-3.107-9.36-9.83,34.349a3.18,3.18,0,0,1-3.05,2.3h-.2a3.141,3.141,0,0,1-2.948-2.63l-10.131-60.932-7.4,36.056a3.158,3.158,0,0,1-3.067,2.4H572.064a3.169,3.169,0,1,1,0-6.332h11.752L594.3,156.509a3.18,3.18,0,0,1,6.236.261l10.346,62.157,8.81-30.733a3.118,3.118,0,0,1,2.965-2.268h.062a3.163,3.163,0,0,1,3,2.177l5.618,16.9h7.7a9.5,9.5,0,1,1,9.025,12.472Z" transform="translate(-253.765 -80.902)" fill="#00695c"/>
  </g>
</svg>
